<?xml version="1.0" standalone="no"?>
<!DOCTYPE svg PUBLIC "-//W3C//DTD SVG 20010904//EN"
 "http://www.w3.org/TR/2001/REC-SVG-20010904/DTD/svg10.dtd">
<svg version="1.0" xmlns="http://www.w3.org/2000/svg"
 width="1024.000000pt" height="1024.000000pt" viewBox="0 0 1024.000000 1024.000000"
 preserveAspectRatio="xMidYMid meet">
<metadata>
Created by potrace 1.11, written by Peter Selinger 2001-2013
</metadata>
<g transform="translate(0.000000,1024.000000) scale(0.100000,-0.100000)"
fill="#000000" stroke="none">
<path d="M4808 9785 c-1 -1 -34 -6 -73 -9 -38 -4 -81 -9 -95 -11 -14 -2 -47
-7 -75 -10 -54 -7 -105 -14 -139 -21 -11 -2 -48 -9 -81 -15 -256 -46 -605
-155 -885 -276 -60 -26 -243 -119 -298 -152 -29 -17 -55 -31 -58 -31 -3 0 -20
-10 -37 -22 -18 -13 -42 -28 -54 -35 -52 -27 -263 -184 -362 -269 -128 -109
-281 -267 -383 -395 -75 -93 -212 -290 -236 -339 -7 -14 -25 -47 -41 -75 -75
-127 -177 -361 -232 -530 -75 -229 -145 -551 -165 -755 -3 -30 -7 -66 -10 -80
-10 -46 -13 -514 -4 -590 15 -125 20 -159 36 -244 71 -373 234 -723 496 -1061
80 -104 399 -436 508 -530 30 -26 189 -159 255 -214 11 -9 124 -99 250 -200
300 -240 415 -339 555 -480 173 -174 281 -321 362 -496 24 -53 30 -55 110 -40
22 5 26 -2 34 -50 3 -21 8 -47 10 -59 4 -21 10 -54 19 -111 3 -16 23 -131 44
-255 22 -124 45 -252 50 -285 12 -74 27 -159 36 -205 7 -37 9 -48 20 -116 l6
-41 -206 0 c-146 0 -213 -4 -229 -13 -71 -38 -61 -164 14 -186 14 -4 40 -7 58
-6 24 1 32 -3 32 -16 0 -143 10 -544 13 -550 3 -4 7 -39 11 -77 17 -183 61
-331 114 -378 34 -31 165 -57 362 -72 41 -3 102 -8 135 -11 97 -10 602 -11
700 -3 195 17 267 29 307 50 50 27 92 195 134 534 2 22 6 56 9 75 5 35 14 132
20 205 5 63 17 219 18 232 0 7 21 11 58 11 68 -1 100 16 119 62 18 42 3 97
-32 123 -23 17 -42 20 -142 20 -64 0 -116 2 -116 5 0 3 31 130 69 281 39 152
72 287 75 301 3 14 20 81 37 150 39 161 33 137 68 274 17 65 33 129 35 142 8
43 17 64 26 59 4 -3 22 24 38 59 88 188 249 371 617 702 50 45 180 161 290
259 562 502 876 845 1137 1245 95 144 112 174 197 340 86 170 191 434 226 570
87 337 100 435 100 750 0 241 -5 311 -35 453 -61 300 -160 548 -322 808 -172
276 -422 547 -708 765 -285 219 -612 402 -950 534 -74 29 -144 57 -155 61 -48
20 -285 93 -355 110 -30 7 -143 33 -190 44 -84 19 -118 26 -200 39 -138 21
-159 24 -220 31 -30 3 -73 8 -95 11 -42 6 -621 15 -627 9z m474 -6784 c4 -1 5
-18 3 -38 -2 -21 -6 -81 -9 -133 -14 -222 -18 -277 -21 -320 -2 -25 -6 -97
-10 -160 -3 -63 -8 -135 -10 -160 -2 -25 -7 -94 -10 -155 -4 -60 -8 -126 -10
-145 -2 -19 -4 -51 -4 -71 l-1 -36 -145 0 c-80 0 -147 2 -149 6 -2 3 -7 53
-10 111 -4 58 -9 125 -11 150 -2 25 -7 90 -10 145 -11 178 -19 296 -30 450 -2
33 -7 110 -10 172 -3 61 -8 121 -10 132 -2 11 -1 22 3 25 7 4 121 13 287 22
55 3 101 7 102 8 3 2 15 2 55 -3z m597 -1 c7 -4 5 -27 -4 -66 -8 -34 -16 -74
-19 -90 -3 -16 -8 -40 -11 -54 -2 -14 -7 -36 -9 -50 -5 -27 -12 -57 -22 -105
-4 -16 -8 -40 -10 -52 -1 -11 -5 -29 -8 -40 -3 -10 -8 -31 -11 -48 -2 -16 -7
-39 -9 -50 -13 -62 -46 -224 -50 -248 -3 -15 -7 -35 -10 -45 -3 -9 -7 -33 -11
-52 -3 -19 -18 -98 -34 -175 l-28 -140 -147 -1 -148 -2 6 92 c4 50 9 120 11
156 10 153 16 249 20 305 3 33 7 105 10 160 3 56 7 119 9 140 2 22 7 99 11
170 4 72 9 141 10 155 2 14 3 31 4 38 1 10 46 13 221 11 121 -1 224 -5 229 -9z
m-1188 -53 c0 -7 2 -20 4 -30 2 -10 6 -77 10 -150 4 -72 8 -148 10 -167 2 -19
7 -82 10 -140 7 -121 12 -193 20 -305 3 -44 7 -114 10 -155 3 -41 7 -107 10
-146 l5 -70 -119 -2 c-68 -1 -123 3 -126 8 -3 6 -10 36 -15 67 -6 32 -12 69
-15 83 -3 14 -7 39 -10 55 -2 17 -7 41 -10 55 -3 14 -7 39 -9 55 -3 17 -14 84
-26 150 -11 66 -23 136 -26 155 -3 19 -7 42 -9 50 -2 8 -7 31 -10 50 -3 19
-14 85 -25 146 -11 61 -22 129 -26 150 -3 21 -9 56 -14 77 -4 20 -5 37 -1 38
3 0 13 2 21 3 14 3 38 6 200 23 30 3 56 6 57 7 1 1 20 2 42 3 25 1 41 -3 42
-10z"/>
</g>
</svg>
