<?xml version="1.0" standalone="no"?>
<!DOCTYPE svg PUBLIC "-//W3C//DTD SVG 20010904//EN"
 "http://www.w3.org/TR/2001/REC-SVG-20010904/DTD/svg10.dtd">
<svg version="1.0" xmlns="http://www.w3.org/2000/svg"
 width="3200.000000pt" height="3200.000000pt" viewBox="0 0 3200.000000 3200.000000"
 preserveAspectRatio="xMidYMid meet">
<metadata>
Created by potrace 1.11, written by Peter Selinger 2001-2013
</metadata>
<g transform="translate(0.000000,3200.000000) scale(0.100000,-0.100000)"
fill="#000000" stroke="none">
<path d="M22546 20702 c-44 -114 -96 -250 -116 -302 -21 -52 -58 -151 -85
-220 -26 -69 -51 -134 -56 -145 -11 -25 -289 -747 -293 -760 -2 -5 -7 -19 -11
-30 -5 -11 -41 -105 -81 -210 -40 -104 -78 -203 -85 -220 -7 -16 -13 -34 -15
-40 -1 -5 -173 -453 -382 -995 -700 -1816 -862 -2238 -862 -2244 0 -3 -9 -25
-19 -49 -11 -23 -83 -208 -161 -412 -222 -579 -341 -888 -350 -910 -5 -11 -41
-105 -80 -210 -40 -104 -76 -199 -81 -210 -5 -11 -40 -103 -79 -205 -39 -102
-74 -194 -79 -205 -5 -11 -27 -67 -49 -125 -22 -58 -146 -381 -276 -718 -129
-337 -237 -620 -238 -629 -3 -16 26 -17 410 -18 267 0 416 3 421 10 5 5 68
165 141 355 140 364 261 677 417 1080 52 135 113 292 135 350 22 58 55 143 73
190 19 47 220 569 448 1160 228 591 436 1129 462 1195 25 66 51 134 57 150 6
17 17 44 24 60 15 36 117 302 180 470 25 66 49 129 54 140 5 11 37 92 71 180
33 88 64 169 69 180 5 11 20 49 33 85 14 36 68 175 120 310 52 135 158 412
237 615 78 204 147 384 154 400 7 17 19 46 26 65 6 19 16 44 21 55 5 11 56
144 115 295 58 151 173 451 256 665 83 215 161 417 174 450 17 46 155 403 225
583 l9 22 -428 0 -427 0 -79 -208z"/>
<path d="M13928 20735 c-2 -1 -75 -5 -163 -9 -160 -6 -253 -16 -425 -46 -30
-5 -68 -12 -85 -15 -16 -2 -41 -7 -55 -10 -14 -3 -38 -8 -53 -10 -136 -25
-490 -131 -622 -186 -269 -112 -407 -181 -591 -294 -486 -300 -874 -722 -1113
-1209 -91 -187 -88 -179 -189 -466 -3 -8 -6 -19 -7 -25 -2 -5 -12 -39 -23 -75
-18 -58 -63 -250 -76 -320 -15 -88 -23 -137 -32 -199 -3 -25 -8 -57 -10 -71
-2 -14 -6 -56 -10 -95 -3 -38 -7 -90 -10 -115 -7 -68 -6 -357 2 -425 3 -33 6
-67 6 -75 0 -8 4 -40 9 -70 5 -30 11 -71 13 -90 9 -68 51 -244 78 -325 105
-316 237 -557 455 -830 90 -114 376 -406 498 -510 38 -33 79 -68 90 -78 11
-11 155 -128 320 -260 403 -324 488 -397 640 -551 174 -175 272 -309 346 -472
l30 -66 58 5 57 6 13 -74 c6 -40 14 -84 16 -97 2 -13 9 -52 15 -88 16 -85 15
-81 45 -255 14 -82 33 -188 41 -235 9 -47 17 -98 20 -115 2 -16 6 -41 9 -55 8
-36 12 -59 19 -110 4 -25 9 -56 12 -70 l5 -25 -188 1 c-221 2 -256 -4 -283
-49 -27 -44 -22 -84 16 -124 27 -28 38 -33 78 -33 l46 0 1 -182 c1 -223 10
-415 24 -487 1 -9 6 -38 9 -66 17 -128 54 -232 96 -275 29 -29 48 -38 100 -48
97 -18 118 -21 195 -27 38 -4 84 -8 100 -10 177 -22 820 -23 940 -1 11 2 42 7
70 11 118 17 147 47 179 186 24 104 25 113 46 264 6 44 13 91 15 105 2 14 7
61 10 105 4 44 8 87 10 95 2 8 7 58 11 110 3 52 8 106 9 120 2 14 4 42 4 63
l1 37 56 0 c97 0 147 51 128 128 -16 63 -51 78 -183 77 l-113 0 7 30 c11 54
13 60 25 105 7 25 13 52 15 60 2 8 15 62 30 120 14 58 28 116 31 130 2 14 11
45 18 70 12 40 49 190 61 245 2 11 13 56 25 100 11 44 23 91 25 105 3 14 14
59 25 100 12 41 23 83 25 93 9 40 17 57 25 57 5 0 21 26 36 58 35 75 113 190
187 277 69 80 266 276 382 380 43 39 83 75 89 80 6 6 70 62 141 125 72 63 135
119 141 125 6 5 51 46 100 90 110 98 530 517 606 605 31 36 80 95 110 131 29
36 69 85 88 108 110 135 294 421 387 601 50 98 143 302 143 315 0 4 6 21 14
38 37 81 122 383 141 497 3 19 8 42 10 50 2 8 7 40 11 70 4 30 8 66 10 80 6
45 17 234 17 300 0 271 -53 558 -149 818 -38 102 -155 346 -180 373 -8 8 -14
19 -14 23 0 9 -85 136 -143 215 -281 380 -732 745 -1210 977 -62 30 -120 59
-130 65 -43 24 -343 140 -460 178 -190 62 -425 122 -570 146 -153 26 -150 25
-257 40 -108 14 -513 37 -522 30z m838 -6789 c8 -3 6 -30 -8 -93 -10 -48 -21
-101 -24 -118 -3 -16 -23 -118 -45 -225 -22 -107 -42 -208 -45 -225 -3 -16 -9
-46 -14 -65 -5 -19 -12 -51 -15 -70 -3 -19 -13 -69 -21 -110 -9 -41 -18 -84
-20 -95 -2 -11 -9 -45 -15 -75 -6 -30 -13 -71 -15 -90 -3 -19 -11 -40 -18 -45
-8 -6 -71 -10 -147 -10 l-134 1 1 75 c1 70 9 219 19 354 5 62 11 160 20 325 3
52 8 113 10 135 3 22 7 94 11 160 10 182 6 169 45 175 38 6 398 2 415 -4z
m-593 -26 c0 -14 -4 -77 -8 -140 -3 -63 -8 -131 -9 -150 -2 -19 -7 -87 -11
-150 -3 -63 -8 -140 -10 -170 -2 -30 -6 -100 -10 -155 -3 -55 -8 -125 -10
-155 -2 -30 -7 -102 -11 -160 -3 -58 -8 -107 -11 -110 -2 -3 -70 -5 -149 -5
l-144 0 -1 30 c-1 16 -2 41 -4 55 -1 14 -5 79 -9 145 -4 66 -9 147 -12 180 -2
33 -6 92 -9 130 -8 150 -16 272 -21 325 -2 30 -7 105 -10 165 -3 61 -7 122 -8
138 -3 24 0 27 28 28 17 1 42 2 56 4 14 1 81 6 150 10 69 4 126 8 128 10 1 1
21 1 45 1 38 -2 42 -4 40 -26z m-588 -86 c4 -68 11 -167 20 -294 3 -36 7 -105
10 -155 4 -83 7 -125 20 -305 3 -36 7 -112 10 -170 3 -58 8 -123 10 -145 l4
-40 -123 0 -124 -1 -8 46 c-4 25 -8 50 -10 55 -3 17 -56 318 -60 350 -3 17 -9
50 -14 75 -5 25 -23 126 -40 225 -17 99 -39 226 -49 283 -10 56 -15 104 -12
106 3 2 38 7 77 10 39 4 80 8 91 10 11 3 56 7 99 11 43 4 81 9 83 11 9 8 12
-6 16 -72z"/>
<path d="M7695 18976 c-35 -21 -185 -96 -192 -97 -5 0 -13 -4 -18 -9 -6 -5
-73 -41 -150 -80 -308 -158 -535 -276 -640 -330 -60 -32 -209 -108 -330 -170
-121 -62 -274 -141 -340 -175 -66 -34 -214 -111 -330 -170 -115 -59 -268 -138
-340 -175 -71 -37 -218 -113 -325 -168 -366 -188 -495 -254 -645 -332 -82 -43
-240 -124 -350 -180 -110 -56 -254 -131 -320 -165 -66 -34 -210 -109 -320
-165 -346 -177 -525 -270 -680 -350 -82 -43 -233 -120 -335 -173 -267 -137
-444 -229 -449 -233 -3 -2 -4 -555 -2 -655 1 -22 16 -33 123 -88 68 -35 200
-103 293 -151 94 -48 265 -136 380 -195 116 -59 260 -133 320 -165 61 -32 193
-100 295 -153 225 -115 492 -252 700 -359 85 -44 238 -123 340 -175 102 -53
248 -128 325 -168 142 -74 325 -168 650 -335 99 -51 239 -123 310 -160 72 -37
225 -116 340 -175 213 -109 418 -215 690 -355 162 -84 359 -185 665 -343 107
-55 223 -115 258 -134 35 -18 73 -38 86 -43 l24 -9 0 432 0 433 -386 193
c-2051 1024 -4502 2258 -4502 2266 0 6 903 463 2008 1017 1104 553 2203 1104
2442 1225 l435 218 2 433 c1 237 -2 432 -5 431 -4 -1 -16 -6 -27 -13z"/>
<path d="M24267 18982 c-2 -4 -3 -198 -3 -431 l1 -424 119 -60 c117 -59 1953
-972 3844 -1913 529 -263 962 -483 962 -489 0 -9 -1712 -868 -2002 -1005 -42
-20 -85 -43 -94 -51 -9 -8 -20 -13 -23 -13 -5 1 -1560 -770 -2596 -1288 l-210
-104 0 -432 c0 -238 1 -432 3 -432 1 0 80 40 175 89 94 49 262 135 372 191
110 56 272 139 360 185 88 45 264 135 390 200 127 65 307 157 400 205 94 48
271 139 395 203 124 63 281 144 350 179 134 70 448 231 835 428 132 67 285
146 340 175 55 29 244 126 420 215 175 90 360 185 410 212 49 26 101 52 115
58 14 6 41 19 60 29 100 53 333 173 945 486 116 59 214 111 220 116 14 13 14
698 0 708 -5 5 -109 59 -230 121 -121 62 -303 155 -405 207 -578 298 -801 412
-1145 588 -115 59 -282 144 -370 190 -88 45 -277 142 -420 215 -143 73 -314
161 -380 195 -66 34 -210 108 -320 165 -110 56 -272 139 -360 184 -88 45 -279
143 -425 218 -276 141 -515 264 -830 426 -102 52 -273 140 -380 195 -107 54
-268 137 -357 183 -89 46 -164 80 -166 76z"/>
</g>
</svg>
